# xmcd CD database file
#
# Track frame offsets:
#	150
#	13482
#	25892
#	43190
#	57500
#	69777
#	84215
#	103370
#	122290
#	140530
#	160477
#	174622
#
# Disc length: 2519 seconds
#
# Revision: 0
# Processed by: cddbd v1.5.2PL0 Copyright (c) Steve Scherf et al.
# Submitted via: CDex 1.70beta2
#
DISCID=a309d50c
DTITLE=Sundance - Einmal im Leben nach Nashville
DYEAR=1900
DGENRE=Country
TTITLE0=Einmal im Leben nach Nashville
TTITLE1=Der Denker
TTITLE2=Sundance Story
TTITLE3=Im Country-Fieber
TTITLE4=Der Steeler
TTITLE5=Wieviele Stunden
TTITLE6=Unser Drummer
TTITLE7=Papas Garten
TTITLE8=Die Roadies von der Country-Band
TTITLE9=Hey, wir sind Sundance
TTITLE10=Der Mann aus den Bergen
TTITLE11=Trucker auf dem Highway
EXTD=
EXTT0=
EXTT1=
EXTT2=
EXTT3=
EXTT4=
EXTT5=
EXTT6=
EXTT7=
EXTT8=
EXTT9=
EXTT10=
EXTT11=
PLAYORDER=
